<?xml version="1.0" encoding="UTF-8"?>
<svg width="188.58mm" height="86.066mm" version="1.1" viewBox="0 0 188.58 86.066" xml:space="preserve" xmlns="http://www.w3.org/2000/svg"><g transform="translate(-5.7076 -57.232)"><g transform="rotate(180 101.73 145.36)" fill="#3380e5"><g transform="matrix(1.1432 0 0 1.2864 -9.1033 7.7691)"><g transform="translate(5.2575 2.1324)"><path d="m118.04 108.97v5.9516h16.799c38.674 0 38.857 50.108 0 50.108h-16.799v6.1435h16.799c47.607 0 47.281-62.203 0-62.203h-16.799" fill="#5a252b"/><path d="m68.363 108.97v5.9516h-16.799c-38.674 0-38.857 50.108 0 50.108h16.799v6.1435h-16.799c-47.607 0-47.281-62.203 0-62.203h16.799" fill="#214675"/><g transform="rotate(180 100.67 111.41)"><g transform="matrix(.93626 0 0 .93626 11.648 7.2837)"><g fill="#5a252b"><rect x="79.958" y="47.42" width="9.2211" height="6.5394" rx="0" ry="0"/><rect x="92.287" y="47.479" width="9.2211" height="6.5394" rx="0" ry="0"/><rect x="104.62" y="47.538" width="9.2211" height="6.5394" rx="0" ry="0"/></g><rect x="116.95" y="47.361" width="9.2211" height="6.5394" rx="0" ry="0" fill="#4b4b4b"/></g><g transform="translate(.39508 -.11781)"><rect x="86.114" y="108.15" width="8.6333" height="6.1225" rx="0" ry="0" fill="#4b4b4b"/><g fill="#214675"><rect x="97.657" y="108.21" width="8.6333" height="6.1225" rx="0" ry="0"/><rect x="109.2" y="108.26" width="8.6333" height="6.1225" rx="0" ry="0"/><rect x="120.74" y="108.1" width="8.6333" height="6.1225" rx="0" ry="0"/></g></g></g><g transform="matrix(-.93626 0 0 -.93626 185.39 273.22)" fill="#e5333e"><path d="m77.619 120.19 0.10253 12.714h-27.58v5.9378h12.303v6.563h-14.764v5.9543l30.041 0.20506v12.919c6.8454-7.3726 13.776-14.762 20.608-22.146v-0.20505c-6.8514-7.364-13.621-14.706-20.608-21.941"/><rect x="26.093" y="139.13" width="9.2211" height="6.0095" rx="0" ry="0" opacity=".6"/><rect x="38.793" y="132.89" width="9.2211" height="6.0095" rx="0" ry="0" opacity=".8"/><rect x="36.676" y="145.38" width="9.2211" height="6.0095" rx="0" ry="0" opacity=".8"/></g><g fill="#3380e5"><path d="m73.69 119.45 0.09599 11.903h-25.822v5.5593h11.519v6.1446h-13.823v5.5748l28.126 0.19199v12.095c6.4091-6.9027 12.898-13.821 19.295-20.735v-0.19198c-6.4147-6.8946-12.753-13.769-19.295-20.542"/><rect x="25.448" y="137.19" width="8.6333" height="5.6264" rx="0" ry="0" opacity=".6"/><rect x="37.339" y="131.34" width="8.6333" height="5.6264" rx="0" ry="0" opacity=".8"/><rect x="35.357" y="143.03" width="8.6333" height="5.6264" rx="0" ry="0" opacity=".8"/></g></g></g></g></g></svg>
